/* XPM */
static char * close_active[] = {
  "30 30 16 1",
  "  c None",
  "a c #aaaaaa s active_color_2",
  "b c #cccccc s active_hilight_2",
  "c c #888888 s active_shadow_2",
  "# c #888888 s active_mid_2",
  "x c #ffffff s active_text_color"
  "y c #888888 s inactive_text_color"
  "d c #00ff88 s active_color_1",
  "e c #44ffbb s active_hilight_1",
  "f c #00cc44 s active_shadow_1",
  "g c #aaaaaa s inactive_color_2",
  "h c #cccccc s inactive_hilight_2",
  "i c #888888 s inactive_shadow_2",
  "j c #cccccc s inactive_color_1",
  "k c #eeeeee s inactive_hilight_1",
  "l c #aaaaaa s inactive_shadow_1",
  "bbbbbbbbbbbbbbbbbbbbbbbbbbbbbb",
  "bbbbbbbbbbbbbbbbbbbbbbbbbbbbbb",
  "bbbbbbbbbbbbbbbbbbbbbbbbbbbbbb",
  "baaaaaaaaaaaaaaaaaaaaaaaaaaaac",
  "baaaaaaaaaaaaaaaaaaaaaaaaaaaac",
  "baaaaaaaaaaaaaaaaaaaaaaaaaaaac",
  "baaaaaaaaaaaaaaaaaaaaaaaaaaaac",
  "baaaaaaaaaaaaaaaaaaaaaaaaaaaac",
  "baaaaaaaaaaa#aaaaa#aaaaaaaaaac",
  "baaaaaaaaaa#c#aaa#c#aaaaaaaaac",
  "baaaaaaaaa#cxc#a#cxc#aaaaaaaac",
  "baaaaaaaa#cxxxc#cxxxc#aaaaaaac",
  "baaaaaaa#cxxxxxcxxxxxc#aaaaaac",
  "baaaaaaaa#cxxxxxxxxxc#aaaaaaac",
  "baaaaaaaaa#cxxxxxxxc#aaaaaaaac",
  "baaaaaaaaaa#cxxxxxc#aaaaaaaaac",
  "baaaaaaaaa#cxxxxxxxc#aaaaaaaac",
  "baaaaaaaa#cxxxxxxxxxc#aaaaaaac",
  "baaaaaaa#cxxxxxcxxxxxc#aaaaaac",
  "baaaaaaaa#cxxxc#cxxxc#aaaaaaac",
  "baaaaaaaaa#cxc#a#cxc#aaaaaaaac",
  "baaaaaaaaaa#c#aaa#c#aaaaaaaaac",
  "baaaaaaaaaaa#aaaaa#aaaaaaaaaac",
  "baaaaaaaaaaaaaaaaaaaaaaaaaaaac",
  "baaaaaaaaaaaaaaaaaaaaaaaaaaaac",
  "baaaaaaaaaaaaaaaaaaaaaaaaaaaac",
  "baaaaaaaaaaaaaaaaaaaaaaaaaaaac",
  "baaaaaaaaaaaaaaaaaaaaaaaaaaaac",
  "cccccccccccccccccccccccccccccc",
  "bbbbbbbbbbbbbbbbbbbbbbbbbbbbbb",
};
