/* XPM */
static char * stick_toggled_prelight[] = {
  "30 30 16 1",
  "  c None",
  "a c #aaaaaa s active_color_2",
  "b c #cccccc s active_hilight_2",
  "c c #888888 s active_shadow_2",
  "# c #888888 s active_mid_2",
  "x c #ffffff s active_text_color"
  "y c #888888 s inactive_text_color"
  "d c #00ff88 s active_color_1",
  "e c #44ffbb s active_hilight_1",
  "f c #00cc44 s active_shadow_1",
  "g c #aaaaaa s inactive_color_2",
  "h c #cccccc s inactive_hilight_2",
  "i c #888888 s inactive_shadow_2",
  "j c #cccccc s inactive_color_1",
  "k c #eeeeee s inactive_hilight_1",
  "l c #aaaaaa s inactive_shadow_1",
  "kkkkkkkkkkkkkkkkkkkkkkkkkkkkkk",
  "kkkkkkkkkkkkkkkkkkkkkkkkkkkkkk",
  "kkkkkkkkkkkkkkkkkkkkkkkkkkkkkk",
  "kjjjjjjjjjjjjjjjjjjjjjjjjjjjjl",
  "kjjjjjjjjjjjjjjjjjjjjjjjjjjjjl",
  "kjjjjjjjjjjjjjjjjjjjjjjjjjjjjl",
  "kjjjjjjjjjjjjjjjjjjjjjjjjjjjjl",
  "kjjjjjjjjjjjjjjjjjjjjjjjjjjjjl",
  "kjjjjjjjjjjjjjjjjjjjjjjjjjjjjl",
  "kjjjjjjjjjjjjjjjjjjjjjjjjjjjjl",
  "kjjjjjjjjjjjjjjjjjjjjjjjjjjjjl",
  "kjjjjjjjlllllljllljjjjjjjjjjjl",
  "kjjjjjjjlxxxxljlxljjllljjjjjjl",
  "kjjjjjjjlxxxxljlxllllxljjjjjjl",
  "kjjjjjjjlxxlllllxxxxxxljjjjjjl",
  "kjjjjjjjlxxlxxxxxxxxxxljjjjjjl",
  "kjjjjjjjlxxlllllxxxxxxljjjjjjl",
  "kjjjjjjjlxxxxljlxllllxljjjjjjl",
  "kjjjjjjjlxxxxljlxljjllljjjjjjl",
  "kjjjjjjjlllllljllljjjjjjjjjjjl",
  "kjjjjjjjjjjjjjjjjjjjjjjjjjjjjl",
  "kjjjjjjjjjjjjjjjjjjjjjjjjjjjjl",
  "kjjjjjjjjjjjjjjjjjjjjjjjjjjjjl",
  "kjjjjjjjjjjjjjjjjjjjjjjjjjjjjl",
  "kjjjjjjjjjjjjjjjjjjjjjjjjjjjjl",
  "kjjjjjjjjjjjjjjjjjjjjjjjjjjjjl",
  "kjjjjjjjjjjjjjjjjjjjjjjjjjjjjl",
  "kjjjjjjjjjjjjjjjjjjjjjjjjjjjjl",
  "llllllllllllllllllllllllllllll",
  "bbbbbbbbbbbbbbbbbbbbbbbbbbbbbb",
};
