/* XPM */
static char * title_1_active_xpm[] = {
"1 30 4 1",
" 	c None",
".	c #FFFFFF s inactive_hilight_2",
"+	c #D5D6D5 s inactive_color_2",
"@	c #949594 s inactive_shadow_2",
".",
".",
".",
"+",
"+",
"+",
"+",
"+",
"+",
"+",
"+",
"+",
"+",
"+",
"+",
"+",
"+",
"+",
"+",
"+",
"+",
"+",
"+",
"+",
"+",
"+",
"+",
"+",
"@",
"."};
