/* XPM */
static char * top_right_active_xpm[] = {
"13 40 4 1",
" 	c None",
".	c #FFFFFF s active_hilight_2",
"+	c #949594 s active_shadow_2",
"@	c #D5D6D5 s active_color_2",
".............",
"............+",
"...........++",
".@@@@@@@@@+++",
".@@@@@@@@@+++",
".@@@@@@@@@+++",
".@@@@@@@@@+++",
".@@@@@@@@@+++",
".@@@@@@@@@+++",
".@@@@@@@@@+++",
".@@@@@@@@@+++",
".@@@@@@@@@+++",
".@@@@@@@@@+++",
".@@@@@@@@@+++",
".@@@@@@@@@+++",
".@@@@@@@@@+++",
".@@@@@@@@@+++",
".@@@@@@@@@+++",
".@@@@@@@@@+++",
".@@@@@@@@@+++",
".@@@@@@@@@+++",
".@@@@@@@@@+++",
".@@@@@@@@@+++",
".@@@@@@@@@+++",
".@@@@@@@@@+++",
".@@@@@@@@@+++",
".@@@@@@@@@+++",
".@@@@@@@@@+++",
"+.@@@@@@@@+++",
"+.@@@@@@@@+++",
"+.@@@@@@@@+++",
"+.@@@@@@@@+++",
"+.@@@@@@@@+++",
"+.@@@@@@@@+++",
"+.@@@@@@@@+++",
"+.@@@@@@@@+++",
"+.@@@@@@@@+++",
"+.@@@@@@@@+++",
"+++++++++++++",
"+.........+++"};
